<svg width="32" height="32" fill="none" xmlns="http://www.w3.org/2000/svg"><g clip-path="url('#clip0_25_437')"><path d="M24.5 0h-17A7.5 7.5 0 0 0 0 7.5v17A7.5 7.5 0 0 0 7.5 32h17a7.5 7.5 0 0 0 7.5-7.5v-17A7.5 7.5 0 0 0 24.5 0Z" fill="url('#paint0_radial_25_437')"/><path d="M24.5 0h-17A7.5 7.5 0 0 0 0 7.5v17A7.5 7.5 0 0 0 7.5 32h17a7.5 7.5 0 0 0 7.5-7.5v-17A7.5 7.5 0 0 0 24.5 0Z" fill="url('#paint1_radial_25_437')"/><path d="M16.001 3.5c-3.395 0-3.82.015-5.154.075-1.33.061-2.24.272-3.034.581A6.12 6.12 0 0 0 5.6 5.598a6.136 6.136 0 0 0-1.443 2.214c-.31.795-.52 1.703-.58 3.034-.06 1.333-.076 1.76-.076 5.154 0 3.395.015 3.82.075 5.153.062 1.33.272 2.24.581 3.034.32.822.747 1.52 1.442 2.214a6.122 6.122 0 0 0 2.213 1.443c.796.31 1.704.52 3.035.58 1.333.061 1.759.076 5.154.076s3.82-.015 5.153-.075c1.33-.061 2.24-.272 3.035-.581a6.116 6.116 0 0 0 2.213-1.443 6.137 6.137 0 0 0 1.443-2.214c.307-.795.518-1.704.58-3.034.06-1.333.076-1.758.076-5.153 0-3.395-.016-3.82-.076-5.154-.062-1.33-.273-2.24-.58-3.034A6.136 6.136 0 0 0 26.4 5.598a6.108 6.108 0 0 0-2.213-1.442c-.797-.309-1.706-.52-3.037-.58-1.333-.061-1.758-.076-5.154-.076h.004ZM14.88 5.753H16c3.338 0 3.733.012 5.051.071 1.219.056 1.88.26 2.321.431.583.226 1 .497 1.437.935.437.438.708.854.935 1.437.171.44.375 1.102.43 2.32.06 1.319.073 1.714.073 5.05s-.013 3.732-.073 5.05c-.055 1.218-.259 1.88-.43 2.32a3.863 3.863 0 0 1-.935 1.436 3.865 3.865 0 0 1-1.437.935c-.44.172-1.102.375-2.32.43-1.319.06-1.714.074-5.052.074-3.338 0-3.733-.013-5.05-.073-1.22-.056-1.881-.26-2.322-.431-.583-.227-1-.498-1.438-.935a3.874 3.874 0 0 1-.935-1.437c-.171-.44-.375-1.101-.43-2.32-.06-1.318-.072-1.714-.072-5.052 0-3.338.012-3.732.072-5.05.055-1.218.259-1.88.43-2.32.227-.584.498-1 .935-1.438a3.878 3.878 0 0 1 1.438-.935c.44-.172 1.102-.375 2.321-.431 1.153-.052 1.6-.068 3.93-.07v.003Zm7.794 2.075a1.5 1.5 0 1 0 0 3 1.5 1.5 0 0 0 0-3ZM16 9.581a6.42 6.42 0 1 0 .001 12.839 6.42 6.42 0 0 0-.001-12.84Zm0 2.252a4.167 4.167 0 1 1 0 8.334 4.167 4.167 0 0 1 0-8.334Z" fill="#fff"/></g><defs><radialGradient id="paint0_radial_25_437" cx="0" cy="0" r="1" gradientUnits="userSpaceOnUse" gradientTransform="matrix(0 -31.7144 29.4969 0 8.5 34.465)"><stop stop-color="#FD5"/><stop offset=".1" stop-color="#FD5"/><stop offset=".5" stop-color="#FF543E"/><stop offset="1" stop-color="#C837AB"/></radialGradient><radialGradient id="paint1_radial_25_437" cx="0" cy="0" r="1" gradientUnits="userSpaceOnUse" gradientTransform="matrix(2.78244 13.90076 -57.2994 11.46931 -5.36 2.305)"><stop stop-color="#3771C8"/><stop offset=".128" stop-color="#3771C8"/><stop offset="1" stop-color="#60F" stop-opacity="0"/></radialGradient><clipPath id="clip0_25_437"><path fill="#fff" d="M0 0h32v32H0z"/></clipPath></defs></svg>