<svg width="57" height="40" fill="none" xmlns="http://www.w3.org/2000/svg"><path fill-rule="evenodd" clip-rule="evenodd" d="M20.483.082c-.39.133-.737.576-.737.944 0 .424.626.993 1.091.993 1.228 0 1.74-1.321.715-1.845-.389-.199-.679-.224-1.069-.092Zm8.282 2.324c-.014.191-.704 16.323-.708 16.56 0 .034-.115.087-.254.117-.287.063-.142.154-3.67-2.308-1.302-.909-2.445-1.691-2.54-1.74-.095-.048.092.171.416.488l2.569 2.501c1.794 1.747 2.152 2.184 1.891 2.317-.047.024-1.142.06-2.433.078l-2.346.034-.873-.822c-4.857-4.58-7.802-8.43-8.072-10.555-.092-.728.22-1.342.8-1.572 1.53-.61 4.88.439 9.26 2.897 1.268.712 1.269.712.635.22-1.591-1.234-4.569-2.894-6.34-3.535-3.38-1.222-5.476-.586-5.461 1.659.005.852.255 1.659.879 2.844 1.063 2.017 3.503 4.992 6.476 7.897l.99.967-1.07.062c-.59.034-4.604.135-8.92.224-4.317.09-8.083.193-8.368.23-.287.037 3.975.19 9.522.34l10.041.274 1.519 1.317 1.518 1.317-.697.634a717.214 717.214 0 0 0-6.203 5.71c-.72.681-.826.81-.402.488.317-.24 1.015-.762 1.552-1.161.537-.4 1.318-.987 1.734-1.306 1.757-1.346 4.77-3.583 4.869-3.615.059-.02.48.264.937.629.457.365 1.144.903 1.528 1.195l.698.533.211 5.225c.116 2.874.244 5.726.284 6.338L28.811 40l.085-1.742c.345-6.999.44-8.793.498-9.404l.066-.695 1.174.796c3.179 2.156 6.324 3.777 8.676 4.473.783.232 1.108.274 2.143.278 1.135.004 1.253-.014 1.688-.255 1.02-.566 1.297-1.524.86-2.975-.45-1.492-1.99-3.765-3.929-5.8-1.246-1.306-1.5-1.423-.56-.255 4.49 5.573 4.894 9.006.978 8.323-2.054-.359-5.44-2.104-9.5-4.898l-1.509-1.04.048-1.096c.09-2.044.184-2.736.377-2.767.096-.015 1.569.978 3.272 2.207 1.703 1.23 3.066 2.194 3.028 2.143-.038-.052-1.21-1.241-2.607-2.644-1.396-1.403-2.538-2.573-2.538-2.6-.001-.314 1.27-.367 20.854-.883 2.553-.067 4.616-.144 4.585-.17-.053-.045-6.107-.199-19.672-.5-4.972-.11-5.655-.157-5.655-.384 0-.041 1.441-1.42 3.203-3.065 5.757-5.373 7.01-6.567 6.43-6.124l-5.64 4.306c-4.516 3.45-5.247 3.954-5.466 3.779-.017-.014-.187-3.069-.378-6.79-.406-7.932-.532-10.143-.557-9.812Zm15.65 3.387c-.038.08-.088.438-.111.795-.023.357-.077.678-.119.714-.042.036-.378-.149-.745-.41-1.114-.792-1.152-.79-.349.014l.773.774-.43.067a9.03 9.03 0 0 1-1.056.073c-.876.008-.627.135.402.205.472.033.892.087.932.12.04.035-.177.314-.483.621-.306.308-.638.645-.738.75-.1.104.242-.103.758-.46l.938-.647.072.3c.04.166.071.511.071.768 0 .256.052.493.116.525.07.037.118-.12.122-.405a4.98 4.98 0 0 1 .087-.826l.08-.361.923.645c.958.67.956.658-.035-.323l-.598-.593.36-.06c.197-.033.6-.06.893-.062.294 0 .612-.043.707-.095.128-.07.052-.094-.288-.096-.255-.001-.733-.03-1.064-.063l-.602-.06.255-.267c.141-.146.49-.5.776-.784l.519-.517-.9.614c-.496.337-.928.592-.96.565-.032-.026-.097-.412-.146-.857-.049-.445-.12-.744-.16-.664ZM32.38 8.063c-.516.433-.332 1.093.369 1.316.319.102.58.037.935-.23.575-.434.129-1.324-.664-1.324-.224 0-.461.088-.64.238Zm18.834 5.479c-.638.42-.26 1.29.562 1.29.526 0 .866-.298.866-.758 0-.646-.801-.945-1.428-.532Zm-25.782 8.184c.924.052 1.125.09 1.123.218-.002.148-1.323 1.364-1.483 1.364-.043 0-.518-.37-1.054-.823l-.976-.822h.632c.348 0 1.139.029 1.758.063Zm2.66 2.593c.051.733.067 1.355.035 1.382-.062.052-2.038-1.431-2.023-1.519.02-.12 1.665-1.261 1.775-1.23.07.019.16.593.213 1.367Zm-27.055.484a1.104 1.104 0 0 0-.446.434c-.452.914.905 1.68 1.737.981.886-.742-.198-1.93-1.291-1.415Zm12.217 7.407c-.04.133-.097.497-.129.809-.032.312-.085.59-.118.617-.034.028-.362-.163-.729-.424-1.113-.79-1.145-.79-.343.014l.772.775-1.068.1-1.068.102.75.073c.413.04.895.097 1.071.125l.32.051-.553.549c-.926.915-.93.955-.03.333.993-.687 1.007-.681 1.028.432.014.73.238.817.252.097.009-.49.087-1.056.152-1.111.018-.015.443.265.945.623.961.683.956.643-.04-.33l-.614-.599.38-.05c.208-.027.743-.08 1.187-.12l.808-.07-.923-.075c-.508-.042-1.046-.088-1.194-.103-.25-.025-.21-.087.514-.802.816-.804.78-.806-.334-.014-.368.261-.695.452-.729.425-.033-.028-.1-.415-.148-.86-.057-.526-.113-.724-.159-.567Z" fill="#C2AA79"/></svg>