<svg width="40" height="40" fill="none" xmlns="http://www.w3.org/2000/svg"><g clip-path="url('#clip0_52_231')"><path d="M20 0A20.006 20.006 0 0 0 0 20a20.006 20.006 0 0 0 20 20 20.006 20.006 0 0 0 20-20A20.006 20.006 0 0 0 20 0Z" fill="url('#paint0_linear_52_231')"/><path d="M9.053 19.789c5.831-2.54 9.719-4.215 11.662-5.024 5.557-2.31 6.71-2.712 7.463-2.725.165-.003.534.038.775.233.2.164.256.386.284.541.025.156.06.51.032.788-.3 3.162-1.604 10.837-2.266 14.379-.278 1.498-.831 2-1.366 2.05-1.162.107-2.044-.767-3.169-1.505-1.759-1.154-2.753-1.872-4.462-2.998-1.975-1.301-.694-2.016.431-3.185.294-.306 5.413-4.96 5.51-5.383.012-.053.025-.25-.094-.353-.116-.104-.288-.069-.413-.04-.178.04-2.987 1.898-8.437 5.575-.797.548-1.519.816-2.169.802-.712-.016-2.087-.404-3.11-.736-1.25-.407-2.246-.623-2.159-1.314.044-.36.541-.729 1.488-1.105Z" fill="#fff"/></g><defs><linearGradient id="paint0_linear_52_231" x1="2000" y1="0" x2="2000" y2="4000" gradientUnits="userSpaceOnUse"><stop stop-color="#2AABEE"/><stop offset="1" stop-color="#229ED9"/></linearGradient><clipPath id="clip0_52_231"><path fill="#fff" d="M0 0h40v40H0z"/></clipPath></defs></svg>