<svg width="57" height="40" viewBox="0 0 57 40" fill="none" xmlns="http://www.w3.org/2000/svg">
<path fill-rule="evenodd" clip-rule="evenodd" d="M20.4835 0.0820771C20.0923 0.214647 19.7462 0.657642 19.7462 1.02603C19.7462 1.44996 20.3715 2.01933 20.837 2.01933C22.0651 2.01933 22.5773 0.697702 21.5522 0.173618C21.1635 -0.025043 20.8733 -0.0499118 20.4835 0.0820771ZM28.765 2.4064C28.7507 2.59722 28.0613 18.7289 28.0574 18.9663C28.0568 19 27.9422 19.0526 27.8027 19.0832C27.5161 19.146 27.6606 19.2369 24.1321 16.7745C22.8308 15.8663 21.6882 15.0837 21.5929 15.0353C21.4977 14.987 21.6852 15.2065 22.0095 15.5231C22.3338 15.8397 23.4894 16.9652 24.5775 18.0241C26.3721 19.7706 26.7296 20.2083 26.4694 20.3407C26.4217 20.3649 25.3268 20.4001 24.0364 20.419L21.6898 20.4533L20.8173 19.6308C15.9598 15.0519 13.0155 11.2018 12.7455 9.076C12.6531 8.34783 12.9648 7.73443 13.5443 7.50384C15.075 6.89489 18.4242 7.94277 22.8048 10.4012C24.0728 11.1127 24.0736 11.113 23.4396 10.6212C21.8485 9.38671 18.8714 7.72669 17.0995 7.08571C13.7205 5.86356 11.6245 6.50028 11.6386 8.74457C11.6439 9.5965 11.8936 10.404 12.518 11.5888C13.5811 13.6059 16.0208 16.5809 18.9941 19.4856L19.9845 20.4533L18.9132 20.5151C18.3239 20.5492 14.31 20.65 9.99339 20.7392C5.67673 20.8284 1.91121 20.9319 1.62555 20.969C1.33862 21.0064 5.60102 21.1589 11.1476 21.3097L21.189 21.583L22.7077 22.9L24.2262 24.217L23.5289 24.851C21.5845 26.6187 18.1904 29.7426 17.3262 30.5602C16.6051 31.242 16.4998 31.3703 16.9245 31.0491C17.2412 30.8096 17.9395 30.2871 18.4764 29.888C19.0133 29.4888 19.7936 28.9009 20.2103 28.5816C21.9668 27.2357 24.9799 24.9987 25.0789 24.9669C25.1379 24.9479 25.5595 25.231 26.016 25.5959C26.4725 25.9607 27.1603 26.4987 27.5443 26.7914L28.2425 27.3237L28.453 32.549C28.5687 35.423 28.6965 38.2751 28.7371 38.8872L28.8109 40L28.8965 38.2582C29.2408 31.259 29.3357 29.4654 29.3937 28.8539L29.4597 28.1585L30.6336 28.9545C33.8129 31.1108 36.9577 32.7324 39.3097 33.4282C40.0931 33.6601 40.4178 33.7021 41.4531 33.7059C42.5878 33.7099 42.7059 33.692 43.1413 33.4506C44.1613 32.885 44.4378 31.9272 44.0002 30.476C43.5501 28.9843 42.0101 26.7106 40.072 24.6769C38.8261 23.3695 38.5724 23.2533 39.5127 24.4207C44.0024 29.9944 44.4055 33.4272 40.4903 32.7438C38.436 32.3852 35.0506 30.6397 30.9905 27.8455L29.4811 26.8067L29.5293 25.7105C29.6194 23.6665 29.7134 22.9741 29.9056 22.9433C30.0022 22.9278 31.4747 23.921 33.178 25.1503C34.8811 26.3796 36.2438 27.3437 36.2062 27.2926C36.1684 27.2415 34.9954 26.0519 33.5993 24.649C32.2032 23.2461 31.061 22.0765 31.061 22.0499C31.06 21.7354 32.3315 21.6815 51.9153 21.1658C54.4683 21.0986 56.5313 21.0219 56.4996 20.9954C56.4467 20.951 50.393 20.7973 36.8282 20.4959C31.8556 20.3854 31.1727 20.3391 31.1727 20.1121C31.1727 20.0706 32.614 18.6914 34.3755 17.0474C40.1325 11.6745 41.3867 10.4799 40.8056 10.9233C40.4908 11.1635 37.9531 13.1013 35.1663 15.2293C30.6502 18.6782 29.9192 19.1833 29.6997 19.0075C29.683 18.9941 29.5133 15.9393 29.3224 12.2189C28.9156 4.28579 28.79 2.07536 28.765 2.4064ZM44.4159 5.79321C44.3772 5.87304 44.3268 6.23059 44.304 6.58785C44.281 6.94501 44.2275 7.26637 44.1851 7.30198C44.1427 7.33759 43.8074 7.15316 43.44 6.89208C42.3256 6.10005 42.2883 6.1016 43.0914 6.90602L43.8641 7.68015L43.4336 7.74711C43.1969 7.78398 42.7218 7.81668 42.3778 7.81968C41.5021 7.82752 41.7507 7.95457 42.7797 8.02512C43.2523 8.05753 43.6719 8.11192 43.7124 8.14588C43.7529 8.17985 43.5355 8.45911 43.2291 8.76644C42.9227 9.07377 42.5908 9.41061 42.4913 9.51512C42.3919 9.61953 42.7328 9.41342 43.2487 9.05693L44.1868 8.40889L44.2586 8.70974C44.2981 8.8753 44.3304 9.22037 44.3304 9.4767C44.3304 9.73304 44.3823 9.96963 44.4458 10.0025C44.5163 10.0391 44.5638 9.88138 44.5679 9.59698C44.5715 9.34104 44.6105 8.96917 44.6545 8.7707L44.7343 8.40976L45.6577 9.05539C46.6157 9.7252 46.6144 9.71339 45.6235 8.73228L45.0247 8.13949L45.3845 8.07911C45.5823 8.04602 45.9844 8.01815 46.2781 8.01738C46.5717 8.0165 46.8898 7.97364 46.985 7.92206C47.1128 7.85278 47.0373 7.82762 46.6965 7.82597C46.4425 7.82462 45.9639 7.79636 45.6327 7.76298L45.0306 7.70231L45.2864 7.4361C45.4272 7.2896 45.776 6.93689 46.0617 6.6523L46.581 6.1347L45.6801 6.74877C45.1845 7.08649 44.753 7.34098 44.7212 7.31437C44.6894 7.28766 44.6235 6.90186 44.575 6.45693C44.5262 6.01209 44.4547 5.71338 44.4159 5.79321ZM32.3794 8.06286C31.8625 8.49608 32.0472 9.15563 32.7477 9.37897C33.0669 9.48067 33.3285 9.41623 33.683 9.14876C34.2579 8.71487 33.8118 7.8253 33.0194 7.8253C32.7945 7.8253 32.5579 7.91306 32.3794 8.06286ZM51.2134 13.5416C50.5748 13.9627 50.9529 14.8312 51.7749 14.8312C52.3009 14.8312 52.6405 14.5343 52.6405 14.0743C52.6405 13.4276 51.8395 13.1286 51.2134 13.5416ZM25.4306 21.7263C26.3552 21.7777 26.5556 21.8164 26.5537 21.9436C26.5517 22.0924 25.2305 23.3079 25.0707 23.3079C25.0278 23.3079 24.5535 22.9377 24.0167 22.4853L23.0408 21.6628L23.673 21.6633C24.0208 21.6636 24.8116 21.692 25.4306 21.7263ZM28.0912 24.3187C28.142 25.0523 28.1577 25.6743 28.1261 25.7009C28.0643 25.7527 26.0885 24.2697 26.1028 24.1824C26.1227 24.0617 27.7676 22.9207 27.8779 22.9513C27.948 22.9707 28.0374 23.5446 28.0912 24.3187ZM1.03553 24.8029C0.869671 24.8811 0.669073 25.0766 0.589665 25.2374C0.138495 26.1506 1.49455 26.9162 2.32694 26.2183C3.2129 25.4755 2.12889 24.2874 1.03553 24.8029ZM13.2532 32.2103C13.2139 32.3434 13.1559 32.7072 13.124 33.0188C13.0921 33.3305 13.0388 33.6083 13.0056 33.6363C12.9722 33.6641 12.6444 33.4735 12.2771 33.2124C11.1636 32.4211 11.132 32.4224 11.9338 33.2264L12.7058 34.0005L11.6382 34.1017L10.5705 34.2028L11.3207 34.2761C11.7333 34.3164 12.2151 34.3726 12.3912 34.4009L12.7116 34.4524L12.1576 35.0006C11.2322 35.9163 11.2287 35.9561 12.1286 35.3335C13.1209 34.6469 13.1347 34.6527 13.1559 35.7665C13.1698 36.4968 13.3943 36.5831 13.4077 35.8633C13.4168 35.3736 13.4947 34.8067 13.5604 34.7516C13.5778 34.737 14.0029 35.0173 14.5051 35.3746C15.466 36.0581 15.4611 36.018 14.4653 35.0459L13.851 34.4461L14.2306 34.3966C14.4393 34.3694 14.9737 34.3154 15.4181 34.2767L16.226 34.2062L15.3026 34.1308C14.7948 34.0893 14.2575 34.0431 14.1087 34.028C13.8591 34.0026 13.8989 33.9406 14.6231 33.2264C15.4386 32.422 15.4029 32.4205 14.2886 33.2124C13.9212 33.4735 13.5936 33.6643 13.5605 33.6367C13.5275 33.6089 13.4608 33.2222 13.4124 32.7773C13.3552 32.2511 13.2995 32.053 13.2532 32.2103Z" fill="#C2AA79"/>
</svg>
